{
.appVersion = "3151";
.formatVersion = 3;
customParameters = (
{
name = vendorID;
value = GOOG;
},
{
name = panose;
value = (
2,
2,
5,
0,
0,
0,
0,
0,
0,
0
);
},
{
name = unicodeRanges;
value = (
0,
1,
7,
29,
36,
42,
43,
44,
45,
48,
49,
50,
51,
52,
54,
55,
57,
59,
61,
65,
66,
68
);
},
{
name = codePageRanges;
value = (
"1252",
"1250",
"1251",
"1258",
"932",
"936",
"bit 29",
"bit 30"
);
},
{
name = fsType;
value = (
);
},
{
name = ROS;
value = "Adobe-Identity-0";
}
);
date = "2017-05-01 11:14:28 +0000";
familyName = "Yaku Han MP";
featurePrefixes = (
{
automatic = 1;
code = "languagesystem DFLT dflt;
";
name = Languagesystems;
}
);
features = (
{
automatic = 1;
code = "feature vert;
feature vrt2;
";
tag = aalt;
},
{
code = "sub comma-han by comma-han.vert;
sub period-han by period-han.vert;
sub colon.full by colon.full.vert;
sub blacklenticularbracketleft by blacklenticularbracketleft.vert;
sub blacklenticularbracketright by blacklenticularbracketright.vert;
sub cornerbracketleft by cornerbracketleft.vert;
sub cornerbracketright by cornerbracketright.vert;
sub dblanglebracketleft by dblanglebracketleft.vert;
sub dblanglebracketright by dblanglebracketright.vert;
sub tortoiseshellbracketleft by tortoiseshellbracketleft.vert;
sub tortoiseshellbracketright by tortoiseshellbracketright.vert;
sub whitecornerbracketleft by whitecornerbracketleft.vert;
sub whitecornerbracketright by whitecornerbracketright.vert;
sub whitelenticularbracketleft by whitelenticularbracketleft.vert;
sub whitelenticularbracketright by whitelenticularbracketright.vert;
sub braceleft.full by braceleft.full.vert;
sub braceright.full by braceright.full.vert;
sub bracketleft.full by bracketleft.full.vert;
sub bracketright.full by bracketright.full.vert;
sub parenleft.full by parenleft.full.vert;
sub parenright.full by parenright.full.vert;
sub angleLeft by anglebracketleft.vert;
sub angleRight by anglebracketright.vert;";
tag = vert;
},
{
automatic = 1;
code = "sub comma-han by comma-han.vert;

glyphs = (
{
glyphname = .notdef;
layers = (
{
hints = (
{
horizontal = 1;
place = (-120, 50);
place = (-120, 50);
type = Stem;
},
{
horizontal = 1;
place = (830, 50);
place = (830, 50);
type = Stem;
},
{
place = (100, 50);
place = (100, 50);
type = Stem;
},
{
place = (850, 50);
place = (850, 50);
type = Stem;
},
{
horizontal = 1;
place = (789, 91);
place = (789, 91);
type = Stem;
}
);
layerId = m01;
shapes = (
{
closed = 1;
nodes = (
(100,-120,l),
(900,-120,l),
(900,880,l),
(100,880,l)
);
},
{
closed = 1;
nodes = (
(500,421,l),
(182,830,l),
(818,830,l)
);
},
{
closed = 1;
nodes = (
(532,380,l),
(850,789,l),
(850,-29,l)
);
},
{
closed = 1;
nodes = (
(182,-70,l),
(500,339,l),
(818,-70,l)
);
},
{
closed = 1;
nodes = (
(150,789,l),
(468,380,l),
(150,-29,l)
);
}
);
vertWidth = 1000;
width = 1000;
}
);
note = ".notdef";
},
{
glyphname = "comma-han";
kernLeft = "comma-han";
layers = (
{
hints = (
{
horizontal = 1;
place = (-78, 252);
place = (-78, 252);
type = Stem;
},
{
place = (37, 258);
place = (37, 258);
type = Stem;
}
);
layerId = m01;
shapes = (
{
closed = 1;
nodes = (
(37,159,l),
(126,94,o),
(164,29,o),
(194,-34,cs),
(209,-65,o),
(224,-78,o),
(247,-78,cs),
(276,-78,o),
(295,-58,o),
(295,-26,cs),
(295,-4,o),
(289,16,o),
(272,41,cs),
(238,91,o),
(172,141,o),
(48,174,c)
);
}
);
vertWidth = 1000;
width = 1000;
}
);
note = cid01397;
unicode = 12289;
},
{
glyphname = "comma-han.vert";
kernBottom = comma.full.vert;
layers = (
{
hints = (
{
horizontal = 1;
place = (589, 251);
place = (589, 251);
type = Stem;
},
{
place = (687, 257);
place = (687, 257);
type = Stem;
}
);
layerId = m01;
shapes = (
{
closed = 1;
nodes = (
(687,824,l),
(775,759,o),
(812,695,o),
(842,633,cs),
(856,602,o),
(871,589,o),
(895,589,cs),
(924,589,o),
(944,609,o),
(944,642,cs),
(944,662,o),
(938,682,o),
(921,708,cs),
(886,757,o),
(821,807,o),
(698,840,c)
);
}
);
vertWidth = 1000;
width = 1000;
}
);
note = cid59877;
unicode = 65041;
},
{
glyphname = "period-han";
kernLeft = "comma-han";
layers = (
{
hints = (
{
horizontal = 1;
place = (-82, 34);
place = (-82, 34);
type = Stem;
},
{
horizontal = 1;
place = (165, 34);
place = (165, 34);
type = Stem;
},
{
place = (42, 34);
place = (42, 34);
type = Stem;
},
{
place = (289, 34);
place = (289, 34);
type = Stem;
}
);
layerId = m01;
shapes = (
{
closed = 1;
nodes = (
(261,-82,o),
(323,-19,o),
(323,59,cs),
(323,137,o),
(261,199,o),
(183,199,cs),
(105,199,o),
(42,137,o),
(42,59,cs),
(42,-19,o),
(105,-82,o),
(183,-82,cs)
);
},
{
closed = 1;
nodes = (
(241,165,o),
(289,117,o),
(289,59,cs),
(289,1,o),
(241,-48,o),
(183,-48,cs),
(124,-48,o),
(76,1,o),
(76,59,cs),
(76,117,o),
(124,165,o),
(183,165,cs)
);
}
);
vertWidth = 1000;
width = 1000;
}
);
note = cid01398;
unicode = 12290;
},
{
glyphname = "period-han.vert";
kernBottom = comma.full.vert;
layers = (
{
hints = (
{
horizontal = 1;
place = (543, 33);
place = (543, 33);
type = Stem;
},
{
horizontal = 1;
place = (787, 34);
place = (787, 34);
type = Stem;
},
{
place = (682, 34);
place = (682, 34);
type = Stem;
},
{
place = (927, 33);
place = (927, 33);
type = Stem;
}
);
layerId = m01;
shapes = (
{
closed = 1;
nodes = (
(899,543,o),
(960,605,o),
(960,682,cs),
(960,759,o),
(899,821,o),
(822,821,cs),
(745,821,o),
(682,759,o),
(682,682,cs),
(682,605,o),
(745,543,o),
(822,543,cs)
);
},
{
closed = 1;
nodes = (
(879,787,o),
(927,740,o),
(927,682,cs),
(927,625,o),
(879,576,o),
(822,576,cs),
(763,576,o),
(716,625,o),
(716,682,cs),
(716,740,o),
(763,787,o),
(822,787,cs)
);
}
);
vertWidth = 1000;
width = 1000;
}
);
note = cid59878;
unicode = 65042;
},
{
glyphname = "dot-kata";
layers = (
{
hints = (
{
horizontal = 1;
place = (282, 196);
place = (282, 196);
type = Stem;
},
{
place = (402, 196);
place = (402, 196);
type = Stem;
}
);
layerId = m01;
shapes = (
{
closed = 1;
nodes = (
(598,434,o),
(554,478,o),
(500,478,cs),
(446,478,o),
(402,434,o),
(402,380,cs),
(402,326,o),
(446,282,o),
(500,282,cs),
(554,282,o),
(598,326,o),
(598,380,cs)
);
}
);
vertWidth = 1000;
width = 1000;
}
);
note = cid01644;
unicode = 12539;
},
{
glyphname = colon.full;
layers = (
{
hints = (
{
horizontal = 1;
place = (35, 144);
place = (35, 144);
type = Stem;
},
{
horizontal = 1;
place = (515, 144);
place = (515, 144);
type = Stem;
},
{
place = (428, 144);
place = (428, 144);
type = Stem;
}
);
layerId = m01;
shapes = (
{
closed = 1;
nodes = (
(428,67,o),
(459,35,o),
(500,35,cs),
(540,35,o),
(572,67,o),
(572,107,cs),
(572,146,o),
(540,179,o),
(500,179,cs),
(459,179,o),
(428,146,o),
(428,107,cs)
);
},
{
closed = 1;
nodes = (
(428,547,o),
(459,515,o),
(500,515,cs),
(540,515,o),
(572,547,o),
(572,587,cs),
(572,626,o),
(540,659,o),
(500,659,cs),
(459,659,o),
(428,626,o),
(428,587,cs)
);
}
);
vertWidth = 1000;
width = 1000;
}
);
note = cid59969;
unicode = 65306;
},
{
glyphname = exclam.full;
layers = (
{
hints = (
{
horizontal = 1;
place = (-12, 133);
place = (-12, 133);
type = Stem;
},
{
place = (432, 136);
place = (432, 136);
type = Stem;
},
{
place = (474, 52);
place = (474, 52);
type = Stem;
}
);
layerId = m01;
shapes = (
{
closed = 1;
nodes = (
(539,-12,o),
(568,18,o),
(568,55,cs),
(568,91,o),
(539,121,o),
(500,121,cs),
(460,121,o),
(432,91,o),
(432,55,cs),
(432,18,o),
(460,-12,o),
(500,-12,cs)
);
},
{
closed = 1;
nodes = (
(462,767,o),
(438,744,o),
(438,693,cs),
(438,639,o),
(447,552,o),
(467,371,cs),
(481,217,l),
(519,217,l),
(533,371,ls),
(553,551,o),
(562,639,o),
(562,693,cs),
(562,744,o),
(538,767,o),
(500,767,cs)
);
}
);
vertWidth = 1000;
width = 1000;
}
);
note = cid59944;
unicode = 65281;
},
{
glyphname = question.full;
layers = (
{
hints = (
{
horizontal = 1;
place = (-12, 131);
place = (-12, 131);
type = Stem;
},
{
horizontal = 1;
place = (725, 42);
place = (725, 42);
type = Stem;
},
{
place = (390, 133);
place = (390, 133);
type = Stem;
},
{
place = (622, 95);
place = (622, 95);
type = Stem;
},
{
place = (428, 48.5);
place = (428, 48.5);
type = Stem;
}
);
layerId = m01;
shapes = (
{
closed = 1;
nodes = (
(418,119,o),
(390,89,o),
(390,53,cs),
(390,17,o),
(418,-12,o),
(456,-12,cs),
(495,-12,o),
(523,17,o),
(523,53,cs),
(523,89,o),
(495,119,o),
(456,119,cs)
);
},
{
closed = 1;
nodes = (
(387,711,l),
(416,722,o),
(436,725,o),
(467,725,cs),
(554,725,o),
(622,690,o),
(622,597,cs),
(622,532,o),
(586,486,o),
(517,434,cs),
(447,381,o),
(428,354,o),
(428,311,cs),
(428,284,o),
(431,245,o),
(436,209,c),
(474,209,l),
(479,280,ls),
(482,330,o),
(505,350,o),
(573,392,cs),
(674,455,o),
(717,514,o),
(717,592,cs),
(717,695,o),
(639,767,o),
(488,767,cs),
(359,767,o),
(261,697,o),
(248,586,c),
(259,564,o),
(277,557,o),
(296,557,cs),
(330,557,o),
(349,579,o),
(363,631,cs)
);
}
);
vertWidth = 1000;
width = 1000;
}
);
note = cid59974;
unicode = 65311;
},
{
glyphname = semicolon.full;
layers = (
{
hints = (
{
horizontal = 1;
place = (515, 144);
place = (515, 144);
type = Stem;
},
{
place = (517, 55);
place = (517, 55);
type = Stem;
},
{
place = (427, 144);
place = (427, 144);
type = Stem;
}
);
layerId = m01;
shapes = (
{
closed = 1;
nodes = (
(430,-96,l),
(536,-49,o),
(572,50,o),
(572,129,cs),
(572,184,o),
(541,222,o),
(495,222,cs),
(451,222,o),
(426,191,o),
(426,157,cs),
(426,102,o),
(478,84,o),
(517,70,c),
(514,29,o),
(490,-31,o),
(414,-69,c)
);
},
{
closed = 1;
nodes = (
(427,547,o),
(459,515,o),
(500,515,cs),
(540,515,o),
(571,547,o),
(571,587,cs),
(571,626,o),
(540,659,o),
(500,659,cs),
(459,659,o),
(427,626,o),
(427,587,cs)
);
}
);
vertWidth = 1000;
width = 1000;
}
);
note = cid59970;
unicode = 65307;
},
{
glyphname = colon.full.vert;
lastChange = "2023-08-27 06:03:28 +0000";
layers = (
{
hints = (
{
horizontal = 1;
place = (308, 144);
place = (308, 144);
type = Stem;
},
{
place = (189, 143);
place = (189, 143);
type = Stem;
},
{
place = (669, 144);
place = (669, 144);
type = Stem;
}
);
layerId = m01;
shapes = (
{
closed = 1;
nodes = (
(669,340,o),
(701,308,o),
(742,308,cs),
(781,308,o),
(813,340,o),
(813,381,cs),
(813,421,o),
(781,452,o),
(742,452,cs),
(701,452,o),
(669,421,o),
(669,381,cs)
);
},
{
closed = 1;
nodes = (
(189,340,o),
(221,308,o),
(261,308,cs),
(301,308,o),
(332,340,o),
(332,381,cs),
(332,421,o),
(301,452,o),
(261,452,cs),
(221,452,o),
(189,421,o),
(189,381,cs)
);
}
);
vertWidth = 1000;
width = 1000;
}
);
note = cid64716;
},
{
glyphname = angleLeft;
layers = (
{
hints = (
{
horizontal = 1;
place = (-90, 940);
place = (-90, 940);
type = Stem;
},
{
place = (532, 433);
place = (532, 433);
type = Stem;
}
);
layerId = m01;
shapes = (
{
closed = 1;
nodes = (
(965,824,l),
(935,850,l),
(532,380,l),
(935,-90,l),
(965,-64,l),
(585,380,l)
);
}
);
vertWidth = 1000;
width = 1000;
}
);
note = cid01404;
unicode = (9001,12296);
},
{
glyphname = angleRight;
layers = (
{
hints = (
{
horizontal = 1;
place = (-90, 940);
place = (-90, 940);
type = Stem;
},
{
place = (35, 433);
place = (35, 433);
type = Stem;
}
);
layerId = m01;
shapes = (
{
closed = 1;
nodes = (
(35,-64,l),
(65,-90,l),
(468,380,l),
(65,850,l),
(35,824,l),
(415,380,l)
);
}
);
vertWidth = 1000;
width = 1000;
}
);
note = cid01405;
unicode = (9002,12297);
},
{
glyphname = blacklenticularbracketleft;
layers = (
{
hints = (
{
horizontal = 1;
place = (-85, 17);
place = (-85, 17);
type = Stem;
},
{
horizontal = 1;
place = (828, 17);
place = (828, 17);
type = Stem;
},
{
place = (622, 80);
place = (622, 80);
type = Stem;
}
);
layerId = m01;
shapes = (
{
closed = 1;
nodes = (
(965,-68,l),
(807,4,o),
(702,158,o),
(702,380,cs),
(702,602,o),
(807,756,o),
(965,828,c),
(965,845,l),
(622,845,l),
(622,-85,l),
(965,-85,l)
);
}
);
vertWidth = 1000;
width = 1000;
}
);
note = cid01412;
unicode = 12304;
},
{
glyphname = blacklenticularbracketright;
layers = (
{
hints = (
{
horizontal = 1;
place = (-85, 17);
place = (-85, 17);
type = Stem;
},
{
horizontal = 1;
place = (828, 17);
place = (828, 17);
type = Stem;
},
{
place = (298, 80);
place = (298, 80);
type = Stem;
}
);
layerId = m01;
shapes = (
{
closed = 1;
nodes = (
(35,-85,l),
(378,-85,l),
(378,845,l),
(35,845,l),
(35,828,l),
(193,756,o),
(298,602,o),
(298,380,cs),
(298,158,o),
(193,4,o),
(35,-68,c)
);
}
);
vertWidth = 1000;
width = 1000;
}
);
note = cid01413;
unicode = 12305;
},
{
glyphname = braceleft.full;
layers = (
{
hints = (
{
horizontal = 1;
place = (-110, 46);
place = (-110, 46);
type = Stem;
},
{
horizontal = 1;
place = (824, 46);
place = (824, 46);
type = Stem;
},
{
place = (706, 82);
place = (706, 82);
type = Stem;
},
{
place = (733, 55);
place = (733, 55);
type = Stem;
}
);
layerId = m01;
shapes = (
{
closed = 1;
nodes = (
(972,825,l),
(972,870,l),
(922,870,ls),
(780,870,o),
(706,820,o),
(706,727,cs),
(706,642,o),
(733,562,o),
(733,502,cs),
(733,450,o),
(699,419,o),
(580,401,c),
(580,359,l),
(699,340,o),
(733,310,o),
(733,259,cs),
(733,198,o),
(706,118,o),
(706,32,cs),
(706,-61,o),
(780,-110,o),
(922,-110,cs),
(972,-110,l),
(972,-66,l),
(922,-62,ls),
(822,-56,o),
(788,-25,o),
(788,42,cs),
(788,116,o),
(796,181,o),
(796,244,cs),
(796,305,o),
(761,359,o),
(673,380,c),
(761,401,o),
(796,454,o),
(796,516,cs),
(796,577,o),
(788,643,o),
(788,718,cs),
(788,784,o),
(822,818,o),
(922,823,cs)
);
}
);
vertWidth = 1000;
width = 1000;
}
);
note = cid60034;
unicode = 65371;
},
{
glyphname = braceright.full;
layers = (
{
hints = (
{
horizontal = 1;
place = (-110, 46);
place = (-110, 46);
type = Stem;
},
{
horizontal = 1;
place = (824, 46);
place = (824, 46);
type = Stem;
},
{
place = (212, 82);
place = (212, 82);
type = Stem;
},
{
place = (212, 55);
place = (212, 55);
type = Stem;
}
);
layerId = m01;
shapes = (
{
closed = 1;
nodes = (
(420,401,l),
(301,420,o),
(267,450,o),
(267,501,cs),
(267,562,o),
(294,642,o),
(294,728,cs),
(294,821,o),
(220,870,o),
(78,870,cs),
(28,870,l),
(28,826,l),
(78,822,ls),
(178,816,o),
(212,785,o),
(212,718,cs),
(212,644,o),
(204,579,o),
(204,516,cs),
(204,455,o),
(239,401,o),
(327,380,c),
(239,359,o),
(204,306,o),
(204,244,cs),
(204,183,o),
(212,117,o),
(212,42,cs),
(212,-24,o),
(178,-58,o),
(78,-63,cs),
(28,-65,l),
(28,-110,l),
(78,-110,ls),
(220,-110,o),
(294,-60,o),
(294,33,cs),
(294,118,o),
(267,198,o),
(267,258,cs),
(267,310,o),
(301,341,o),
(420,359,c)
);
}
);
vertWidth = 1000;
width = 1000;
}
);
note = cid60036;
unicode = 65373;
},
{
glyphname = cornerbracketleft;
layers = (
{
hints = (
{
horizontal = 1;
place = (809, 36);
place = (809, 36);
type = Stem;
},
{
place = (655, 38);
place = (655, 38);
type = Stem;
}
);
layerId = m01;
shapes = (
{
closed = 1;
nodes = (
(655,198,l),
(693,198,l),
(693,809,l),
(965,809,l),
(965,845,l),
(655,845,l)
);
}
);
vertWidth = 1000;
width = 1000;
}
);
note = cid01408;
unicode = 12300;
},
{
glyphname = cornerbracketright;
layers = (
{
hints = (
{
horizontal = 1;
place = (-85, 36);
place = (-85, 36);
type = Stem;
},
{
place = (307, 38);
place = (307, 38);
type = Stem;
}
);
layerId = m01;
shapes = (
{
closed = 1;
nodes = (
(345,562,l),
(307,562,l),
(307,-49,l),
(35,-49,l),
(35,-85,l),
(345,-85,l)
);
}
);
vertWidth = 1000;
width = 1000;
}
);
note = cid01409;
unicode = 12301;
},
{
glyphname = dblanglebracketleft;
layers = (
{
hints = (
{
horizontal = 1;
place = (-88, 936);
place = (-88, 936);
type = Stem;
},
{
place = (524, 440);
place = (524, 440);
type = Stem;
}
);
layerId = m01;
shapes = (
{
closed = 1;
nodes = (
(564,380,l),
(822,830,l),
(793,848,l),
(524,380,l),
(793,-88,l),
(822,-70,l)
);
},
{
closed = 1;
nodes = (
(707,380,l),
(964,830,l),
(935,848,l),
(667,380,l),
(935,-88,l),
(964,-70,l)
);
}
);
vertWidth = 1000;
width = 1000;
}
);
note = cid01406;
unicode = 12298;
},
{
glyphname = dblanglebracketright;
layers = (
{
hints = (
{
horizontal = 1;
place = (-88, 936);
place = (-88, 936);
type = Stem;
},
{
place = (36, 440);
place = (36, 440);
type = Stem;
}
);
layerId = m01;
shapes = (
{
closed = 1;
nodes = (
(207,-88,l),
(476,380,l),
(207,848,l),
(178,830,l),
(436,380,l),
(178,-70,l)
);
},
{
closed = 1;
nodes = (
(65,-88,l),
(333,380,l),
(65,848,l),
(36,830,l),
(293,380,l),
(36,-70,l)
);
}
);
vertWidth = 1000;
width = 1000;
}
);
note = cid01407;
unicode = 12299;
},
{
glyphname = tortoiseshellbracketleft;
layers = (
{
hints = (
{
horizontal = 1;
place = (-89, 938);
place = (-89, 938);
type = Stem;
},
{
place = (715, 39);
place = (715, 39);
type = Stem;
}
);
layerId = m01;
shapes = (
{
closed = 1;
nodes = (
(948,-89,l),
(965,-56,l),
(754,42,l),
(754,718,l),
(965,816,l),
(948,849,l),
(715,740,l),
(715,20,l)
);
}
);
vertWidth = 1000;
width = 1000;
}
);
note = cid01416;
unicode = 12308;
},
{
glyphname = tortoiseshellbracketright;
layers = (
{
hints = (
{
horizontal = 1;
place = (-89, 938);
place = (-89, 938);
type = Stem;
},
{
place = (246, 39);
place = (246, 39);
type = Stem;
}
);
layerId = m01;
shapes = (
{
closed = 1;
nodes = (
(52,-89,l),
(285,20,l),
(285,740,l),
(52,849,l),
(35,816,l),
(246,717,l),
(246,43,l),
(35,-56,l)
);
}
);
vertWidth = 1000;
width = 1000;
}
);
note = cid01417;
unicode = 12309;
},
{
glyphname = whitecornerbracketleft;
layers = (
{
hints = (
{
horizontal = 1;
place = (191, 28);
place = (191, 28);
type = Stem;
},
{
horizontal = 1;
place = (700, 28);
place = (700, 28);
type = Stem;
},
{
horizontal = 1;
place = (818, 28);
place = (818, 28);
type = Stem;
},
{
place = (609, 28);
place = (609, 28);
type = Stem;
},
{
place = (731, 28);
place = (731, 28);
type = Stem;
},
{
place = (937, 28);
place = (937, 28);
type = Stem;
}
);
layerId = m01;
shapes = (
{
closed = 1;
nodes = (
(965,700,l),
(965,846,l),
(609,846,l),
(609,191,l),
(759,191,l),
(759,700,l)
);
},
{
closed = 1;
nodes = (
(937,818,l),
(937,728,l),
(731,728,l),
(731,219,l),
(637,219,l),
(637,818,l)
);
}
);
vertWidth = 1000;
width = 1000;
}
);
note = cid01410;
unicode = 12302;
},
{
glyphname = whitecornerbracketright;
layers = (
{
hints = (
{
horizontal = 1;
place = (-85, 28);
place = (-85, 28);
type = Stem;
},
{
horizontal = 1;
place = (33, 28);
place = (33, 28);
type = Stem;
},
{
horizontal = 1;
place = (541, 28);
place = (541, 28);
type = Stem;
},
{
place = (35, 28);
place = (35, 28);
type = Stem;
},
{
place = (241, 28);
place = (241, 28);
type = Stem;
},
{
place = (363, 28);
place = (363, 28);
type = Stem;
}
);
layerId = m01;
shapes = (
{
closed = 1;
nodes = (
(35,61,l),
(35,-85,l),
(391,-85,l),
(391,569,l),
(241,569,l),
(241,61,l)
);
},
{
closed = 1;
nodes = (
(63,-57,l),
(63,33,l),
(269,33,l),
(269,541,l),
(363,541,l),
(363,-57,l)
);
}
);
vertWidth = 1000;
width = 1000;
}
);
note = cid01411;
unicode = 12303;
},
{
glyphname = whitelenticularbracketleft;
layers = (
{
hints = (
{
horizontal = 1;
place = (-85, 28);
place = (-85, 28);
type = Stem;
},
{
horizontal = 1;
place = (817, 28);
place = (817, 28);
type = Stem;
},
{
place = (615, 28);
place = (615, 28);
type = Stem;
},
{
place = (676, 28);
place = (676, 28);
type = Stem;
},
{
horizontal = 1;
place = (824, 21);
place = (824, 21);
type = Stem;
}
);
layerId = m01;
shapes = (
{
closed = 1;
nodes = (
(965,-64,l),
(813,2,o),
(704,158,o),
(704,380,cs),
(704,602,o),
(813,758,o),
(965,824,c),
(965,845,l),
(615,845,l),
(615,-85,l),
(965,-85,l)
);
},
{
closed = 1;
nodes = (
(643,-57,l),
(643,817,l),
(894,817,l),
(807,764,o),
(676,632,o),
(676,380,cs),
(676,128,o),
(807,-4,o),
(894,-57,c)
);
}
);
vertWidth = 1000;
width = 1000;
}
);
note = cid01418;
unicode = 12310;
},
{
glyphname = whitelenticularbracketright;
layers = (
{
hints = (
{
horizontal = 1;
place = (-85, 28);
place = (-85, 28);
type = Stem;
},
{
horizontal = 1;
place = (817, 28);
place = (817, 28);
type = Stem;
},
{
place = (296, 28);
place = (296, 28);
type = Stem;
},
{
place = (357, 28);
place = (357, 28);
type = Stem;
},
{
horizontal = 1;
place = (824, 21);
place = (824, 21);
type = Stem;
}
);
layerId = m01;
shapes = (
{
closed = 1;
nodes = (
(385,-85,l),
(385,845,l),
(35,845,l),
(35,824,l),
(187,758,o),
(296,602,o),
(296,380,cs),
(296,158,o),
(187,2,o),
(35,-64,c),
(35,-85,l)
);
},
{
closed = 1;
nodes = (
(324,632,o),
(194,764,o),
(107,817,c),
(357,817,l),
(357,-57,l),
(107,-57,l),
(194,-4,o),
(324,128,o),
(324,380,cs)
);
}
);
vertWidth = 1000;
width = 1000;
}
);
note = cid01419;
unicode = 12311;
},
{
glyphname = anglebracketleft.vert;
layers = (
{
hints = (
{
horizontal = 1;
place = (-85, 433);
place = (-85, 433);
type = Stem;
},
{
place = (30, 940);
place = (30, 940);
type = Stem;
}
);
layerId = m01;
shapes = (
{
closed = 1;
nodes = (
(944,-85,l),
(970,-55,l),
(500,348,l),
(30,-55,l),
(56,-85,l),
(500,295,l)
);
}
);
vertWidth = 1000;
width = 1000;
}
);
note = cid59901;
unicode = 65087;
},
{
glyphname = anglebracketright.vert;
layers = (
{
hints = (
{
horizontal = 1;
place = (412, 433);
place = (412, 433);
type = Stem;
},
{
place = (30, 940);
place = (30, 940);
type = Stem;
}
);
layerId = m01;
shapes = (
{
closed = 1;
nodes = (
(56,845,l),
(30,815,l),
(500,412,l),
(970,815,l),
(944,845,l),
(500,465,l)
);
}
);
vertWidth = 1000;
width = 1000;
}
);
note = cid59902;
unicode = 65088;
},
{
glyphname = blacklenticularbracketleft.vert;
layers = (
{
hints = (
{
horizontal = 1;
place = (178, 80);
place = (178, 80);
type = Stem;
},
{
place = (35, 17);
place = (35, 17);
type = Stem;
},
{
place = (948, 17);
place = (948, 17);
type = Stem;
}
);
layerId = m01;
shapes = (
{
closed = 1;
nodes = (
(52,-85,l),
(124,73,o),
(278,178,o),
(500,178,cs),
(722,178,o),
(876,73,o),
(948,-85,c),
(965,-85,l),
(965,258,l),
(35,258,l),
(35,-85,l)
);
}
);
vertWidth = 1000;
width = 1000;
}
);
note = cid59897;
unicode = 65083;
},
{
glyphname = blacklenticularbracketright.vert;
layers = (
{
hints = (
{
horizontal = 1;
place = (502, 80);
place = (502, 80);
type = Stem;
},
{
place = (35, 17);
place = (35, 17);
type = Stem;
},
{
place = (948, 17);
place = (948, 17);
type = Stem;
}
);
layerId = m01;
shapes = (
{
closed = 1;
nodes = (
(948,845,l),
(876,687,o),
(722,582,o),
(500,582,cs),
(278,582,o),
(124,687,o),
(52,845,c),
(35,845,l),
(35,502,l),
(965,502,l),
(965,845,l)
);
}
);
vertWidth = 1000;
width = 1000;
}
);
note = cid59898;
unicode = 65084;
},
{
glyphname = bracketleft.full;
layers = (
{
hints = (
{
horizontal = 1;
place = (-85, 36);
place = (-85, 36);
type = Stem;
},
{
horizontal = 1;
place = (809, 36);
place = (809, 36);
type = Stem;
},
{
place = (715, 39);
place = (715, 39);
type = Stem;
}
);
layerId = m01;
shapes = (
{
closed = 1;
nodes = (
(715,-85,l),
(965,-85,l),
(965,-49,l),
(754,-49,l),
(754,809,l),
(965,809,l),
(965,845,l),
(715,845,l)
);
}
);
vertWidth = 1000;
width = 1000;
}
);
note = cid60002;
unicode = 65339;
},
{
glyphname = bracketright.full;
layers = (
{
hints = (
{
horizontal = 1;
place = (-85, 36);
place = (-85, 36);
type = Stem;
},
{
horizontal = 1;
place = (809, 36);
place = (809, 36);
type = Stem;
},
{
place = (246, 39);
place = (246, 39);
type = Stem;
}
);
layerId = m01;
shapes = (
{
closed = 1;
nodes = (
(285,-85,l),
(285,845,l),
(35,845,l),
(35,809,l),
(246,809,l),
(246,-49,l),
(35,-49,l),
(35,-85,l)
);
}
);
vertWidth = 1000;
width = 1000;
}
);
note = cid60004;
unicode = 65341;
},
{
glyphname = cornerbracketleft.vert;
layers = (
{
hints = (
{
horizontal = 1;
place = (189, 36);
place = (189, 36);
type = Stem;
},
{
place = (936, 39);
place = (936, 39);
type = Stem;
}
);
layerId = m01;
shapes = (
{
closed = 1;
nodes = (
(268,225,l),
(268,189,l),
(936,189,l),
(936,-85,l),
(975,-85,l),
(975,225,l)
);
}
);
vertWidth = 1000;
width = 1000;
}
);
note = cid59903;
unicode = 65089;
},
{
glyphname = cornerbracketright.vert;
layers = (
{
hints = (
{
horizontal = 1;
place = (527, 37);
place = (527, 37);
type = Stem;
},
{
place = (25, 39);
place = (25, 39);
type = Stem;
}
);
layerId = m01;
shapes = (
{
closed = 1;
nodes = (
(732,527,l),
(732,564,l),
(64,564,l),
(64,838,l),
(25,838,l),
(25,527,l)
);
}
);
vertWidth = 1000;
width = 1000;
}
);
note = cid59904;
unicode = 65090;
},
{
glyphname = dblanglebracketleft.vert;
layers = (
{
hints = (
{
horizontal = 1;
place = (-84, 440);
place = (-84, 440);
type = Stem;
},
{
place = (32, 936);
place = (32, 936);
type = Stem;
}
);
layerId = m01;
shapes = (
{
closed = 1;
nodes = (
(500,316,l),
(950,58,l),
(968,87,l),
(500,356,l),
(32,87,l),
(50,58,l)
);
},
{
closed = 1;
nodes = (
(500,173,l),
(950,-84,l),
(968,-55,l),
(500,213,l),
(32,-55,l),
(50,-84,l)
);
}
);
vertWidth = 1000;
width = 1000;
}
);
note = cid59899;
unicode = 65085;
},
{
glyphname = dblanglebracketright.vert;
layers = (
{
hints = (
{
horizontal = 1;
place = (404, 440);
place = (404, 440);
type = Stem;
},
{
place = (32, 936);
place = (32, 936);
type = Stem;
}
);
layerId = m01;
shapes = (
{
closed = 1;
nodes = (
(32,673,l),
(500,404,l),
(968,673,l),
(950,702,l),
(500,444,l),
(50,702,l)
);
},
{
closed = 1;
nodes = (
(32,815,l),
(500,547,l),
(968,815,l),
(950,844,l),
(500,587,l),
(50,844,l)
);
}
);
vertWidth = 1000;
width = 1000;
}
);
note = cid59900;
unicode = 65086;
},
{
glyphname = parenleft.full;
layers = (
{
hints = (
{
horizontal = 1;
place = (-89, 938);
place = (-89, 938);
type = Stem;
},
{
place = (649, 74);
place = (649, 74);
type = Stem;
}
);
layerId = m01;
shapes = (
{
closed = 1;
nodes = (
(649,139,o),
(784,-3,o),
(922,-89,c),
(939,-70,l),
(823,25,o),
(723,168,o),
(723,380,cs),
(723,592,o),
(823,735,o),
(939,830,c),
(922,849,l),
(784,763,o),
(649,621,o),
(649,380,cs)
);
}
);
vertWidth = 1000;
width = 1000;
}
);
note = cid59951;
unicode = 65288;
},
{
glyphname = parenright.full;
layers = (
{
hints = (
{
horizontal = 1;
place = (-89, 938);
place = (-89, 938);
type = Stem;
},
{
place = (277, 74);
place = (277, 74);
type = Stem;
}
);
layerId = m01;
shapes = (
{
closed = 1;
nodes = (
(61,830,l),
(177,735,o),
(277,592,o),
(277,380,cs),
(277,168,o),
(177,25,o),
(61,-70,c),
(78,-89,l),
(216,-3,o),
(351,139,o),
(351,380,cs),
(351,621,o),
(216,763,o),
(78,849,c)
);
}
);
vertWidth = 1000;
width = 1000;
}
);
note = cid59952;
unicode = 65289;
},
{
glyphname = tortoiseshellbracketleft.vert;
layers = (
{
hints = (
{
horizontal = 1;
place = (127, 38);
place = (127, 38);
type = Stem;
},
{
place = (31, 938);
place = (31, 938);
type = Stem;
}
);
layerId = m01;
shapes = (
{
closed = 1;
nodes = (
(140,165,l),
(31,-68,l),
(64,-85,l),
(164,127,l),
(836,127,l),
(936,-85,l),
(969,-68,l),
(860,165,l)
);
}
);
vertWidth = 1000;
width = 1000;
}
);
note = cid59895;
unicode = 65081;
},
{
glyphname = tortoiseshellbracketright.vert;
layers = (
{
hints = (
{
horizontal = 1;
place = (595, 38);
place = (595, 38);
type = Stem;
},
{
place = (31, 938);
place = (31, 938);
type = Stem;
}
);
layerId = m01;
shapes = (
{
closed = 1;
nodes = (
(969,828,l),
(936,845,l),
(836,633,l),
(164,633,l),
(64,845,l),
(31,828,l),
(140,595,l),
(860,595,l)
);
}
);
vertWidth = 1000;
width = 1000;
}
);
note = cid59896;
unicode = 65082;
},
{
glyphname = whitecornerbracketleft.vert;
layers = (
{
hints = (
{
horizontal = 1;
place = (-85, 28);
place = (-85, 28);
type = Stem;
},
{
horizontal = 1;
place = (115, 28);
place = (115, 28);
type = Stem;
},
{
horizontal = 1;
place = (233, 28);
place = (233, 28);
type = Stem;
},
{
place = (311, 28);
place = (311, 28);
type = Stem;
},
{
place = (815, 28);
place = (815, 28);
type = Stem;
},
{
place = (937, 28);
place = (937, 28);
type = Stem;
}
);
layerId = m01;
shapes = (
{
closed = 1;
nodes = (
(815,-85,l),
(965,-85,l),
(965,261,l),
(311,261,l),
(311,115,l),
(815,115,l)
);
},
{
closed = 1;
nodes = (
(937,-57,l),
(843,-57,l),
(843,143,l),
(339,143,l),
(339,233,l),
(937,233,l)
);
}
);
vertWidth = 1000;
width = 1000;
}
);
note = cid59905;
unicode = 65091;
},
{
glyphname = whitecornerbracketright.vert;
layers = (
{
hints = (
{
horizontal = 1;
place = (499, 28);
place = (499, 28);
type = Stem;
},
{
horizontal = 1;
place = (617, 28);
place = (617, 28);
type = Stem;
},
{
horizontal = 1;
place = (817, 28);
place = (817, 28);
type = Stem;
},
{
place = (35, 28);
place = (35, 28);
type = Stem;
},
{
place = (157, 28);
place = (157, 28);
type = Stem;
},
{
place = (661, 28);
place = (661, 28);
type = Stem;
}
);
layerId = m01;
shapes = (
{
closed = 1;
nodes = (
(185,845,l),
(35,845,l),
(35,499,l),
(689,499,l),
(689,645,l),
(185,645,l)
);
},
{
closed = 1;
nodes = (
(63,817,l),
(157,817,l),
(157,617,l),
(661,617,l),
(661,527,l),
(63,527,l)
);
}
);
vertWidth = 1000;
width = 1000;
}
);
note = cid59906;
unicode = 65092;
},
{
glyphname = whitelenticularbracketleft.vert;
layers = (
{
hints = (
{
horizontal = 1;
place = (176, 28);
place = (176, 28);
type = Stem;
},
{
horizontal = 1;
place = (237, 28);
place = (237, 28);
type = Stem;
},
{
place = (35, 28);
place = (35, 28);
type = Stem;
},
{
place = (937, 28);
place = (937, 28);
type = Stem;
}
);
layerId = m01;
shapes = (
{
closed = 1;
nodes = (
(56,-85,l),
(122,67,o),
(278,176,o),
(500,176,cs),
(722,176,o),
(878,67,o),
(944,-85,c),
(965,-85,l),
(965,265,l),
(35,265,l),
(35,-85,l)
);
},
{
closed = 1;
nodes = (
(63,237,l),
(937,237,l),
(937,-14,l),
(884,73,o),
(752,204,o),
(500,204,cs),
(248,204,o),
(116,73,o),
(63,-14,c)
);
}
);
vertWidth = 1000;
width = 1000;
}
);
note = cid59883;
unicode = 65047;
},
{
glyphname = whitelenticularbracketright.vert;
layers = (
{
hints = (
{
horizontal = 1;
place = (502, 28);
place = (502, 28);
type = Stem;
},
{
horizontal = 1;
place = (564, 28);
place = (564, 28);
type = Stem;
},
{
place = (35, 28);
place = (35, 28);
type = Stem;
},
{
place = (937, 28);
place = (937, 28);
type = Stem;
}
);
layerId = m01;
shapes = (
{
closed = 1;
nodes = (
(35,502,l),
(965,502,l),
(965,853,l),
(944,853,l),
(878,700,o),
(722,592,o),
(500,592,cs),
(278,592,o),
(122,700,o),
(56,853,c),
(35,853,l)
);
},
{
closed = 1;
nodes = (
(752,564,o),
(884,694,o),
(937,781,c),
(937,530,l),
(63,530,l),
(63,781,l),
(116,694,o),
(248,564,o),
(500,564,cs)
);
}
);
vertWidth = 1000;
width = 1000;
}
);
note = cid59884;
unicode = 65048;
},
{
glyphname = braceleft.full.vert;
layers = (
{
hints = (
{
horizontal = 1;
place = (63, 81);
place = (63, 81);
type = Stem;
},
{
place = (10, 46);
place = (10, 46);
type = Stem;
},
{
place = (944, 46);
place = (944, 46);
type = Stem;
},
{
horizontal = 1;
place = (53, 64);
place = (53, 64);
type = Stem;
}
);
layerId = m01;
shapes = (
{
closed = 1;
nodes = (
(479,270,l),
(461,151,o),
(430,117,o),
(379,117,cs),
(318,117,o),
(238,144,o),
(153,144,cs),
(60,144,o),
(10,71,o),
(10,-72,cs),
(10,-121,l),
(54,-121,l),
(58,-71,ls),
(64,29,o),
(96,63,o),
(162,63,cs),
(236,63,o),
(302,53,o),
(364,53,cs),
(425,53,o),
(479,88,o),
(500,176,c),
(521,88,o),
(574,53,o),
(636,53,cs),
(698,53,o),
(763,63,o),
(838,63,cs),
(904,63,o),
(938,29,o),
(943,-71,cs),
(945,-121,l),
(990,-121,l),
(990,-72,ls),
(990,71,o),
(941,144,o),
(847,144,cs),
(762,144,o),
(682,117,o),
(622,117,cs),
(570,117,o),
(539,151,o),
(521,270,c)
);
}
);
vertWidth = 1000;
width = 1000;
}
);
note = cid59893;
unicode = 65079;
},
{
glyphname = braceright.full.vert;
layers = (
{
hints = (
{
horizontal = 1;
place = (613, 82);
place = (613, 82);
type = Stem;
},
{
place = (10, 46);
place = (10, 46);
type = Stem;
},
{
place = (944, 46);
place = (944, 46);
type = Stem;
},
{
horizontal = 1;
place = (641, 63);
place = (641, 63);
type = Stem;
}
);
layerId = m01;
shapes = (
{
closed = 1;
nodes = (
(945,879,l),
(943,829,ls),
(938,729,o),
(904,695,o),
(838,695,cs),
(763,695,o),
(698,704,o),
(636,704,cs),
(574,704,o),
(521,669,o),
(500,581,c),
(479,669,o),
(425,704,o),
(364,704,cs),
(302,704,o),
(236,695,o),
(162,695,cs),
(96,695,o),
(64,729,o),
(58,829,cs),
(54,879,l),
(10,879,l),
(10,829,ls),
(10,687,o),
(60,613,o),
(153,613,cs),
(238,613,o),
(318,641,o),
(379,641,cs),
(430,641,o),
(461,607,o),
(479,488,c),
(521,488,l),
(539,607,o),
(570,641,o),
(622,641,cs),
(682,641,o),
(762,613,o),
(848,613,cs),
(941,613,o),
(990,687,o),
(990,829,cs),
(990,879,l)
);
}
);
vertWidth = 1000;
width = 1000;
}
);
note = cid59894;
unicode = 65080;
},
{
glyphname = bracketleft.full.vert;
layers = (
{
hints = (
{
horizontal = 1;
place = (128, 37);
place = (128, 37);
type = Stem;
},
{
place = (35, 38);
place = (35, 38);
type = Stem;
},
{
place = (927, 38);
place = (927, 38);
type = Stem;
}
);
layerId = m01;
shapes = (
{
closed = 1;
nodes = (
(35,165,l),
(35,-85,l),
(73,-85,l),
(73,128,l),
(927,128,l),
(927,-85,l),
(965,-85,l),
(965,165,l)
);
}
);
vertWidth = 1000;
width = 1000;
}
);
note = cid59909;
unicode = 65095;
},
{
glyphname = bracketright.full.vert;
layers = (
{
hints = (
{
horizontal = 1;
place = (595, 37);
place = (595, 37);
type = Stem;
},
{
place = (35, 38);
place = (35, 38);
type = Stem;
},
{
place = (927, 38);
place = (927, 38);
type = Stem;
}
);
layerId = m01;
shapes = (
{
closed = 1;
nodes = (
(965,595,l),
(965,845,l),
(927,845,l),
(927,632,l),
(73,632,l),
(73,845,l),
(35,845,l),
(35,595,l)
);
}
);
vertWidth = 1000;
width = 1000;
}
);
note = cid59910;
unicode = 65096;
},
{
glyphname = parenleft.full.vert;
layers = (
{
hints = (
{
horizontal = 1;
place = (158, 74);
place = (158, 74);
type = Stem;
},
{
place = (31, 938);
place = (31, 938);
type = Stem;
}
);
layerId = m01;
shapes = (
{
closed = 1;
nodes = (
(259,232,o),
(117,97,o),
(31,-41,c),
(50,-58,l),
(145,58,o),
(288,158,o),
(500,158,cs),
(712,158,o),
(855,58,o),
(950,-58,c),
(969,-41,l),
(883,97,o),
(741,232,o),
(500,232,cs)
);
}
);
vertWidth = 1000;
width = 1000;
}
);
note = cid59891;
unicode = 65077;
},
